<svg width="443" height="487" viewBox="0 0 443 487" fill="none" xmlns="http://www.w3.org/2000/svg">
<g filter="url(#filter0_d_2007_5)">
<path d="M235.95 122.27C173.17 122.27 122.27 173.17 122.27 235.95C122.27 289.29 159.01 334.05 208.56 346.3L218.13 334.39L230.42 319.12C186.96 316.28 152.59 280.13 152.59 235.95C152.59 191.77 189.91 152.59 235.95 152.59C254.85 152.59 272.29 158.88 286.27 169.49L313.23 152.59C292.95 133.76 265.8 122.27 235.95 122.27ZM285.37 303.08C285.22 303.25 285.07 303.42 284.93 303.59C285.39 303.21 285.84 302.81 286.27 302.41C285.97 302.64 285.67 302.86 285.37 303.08ZM235.95 65.43C141.78 65.43 65.43 141.78 65.43 235.95C65.43 306.96 108.83 367.83 170.56 393.48L184.02 376.76L190.56 368.64C135.41 349.78 95.75 297.5 95.75 235.95C95.75 158.52 158.52 95.75 235.95 95.75C275.31 95.75 310.89 111.97 336.35 138.09L362.53 121.69C331.32 87.14 286.17 65.43 235.95 65.43ZM235.95 122.27C173.17 122.27 122.27 173.17 122.27 235.95C122.27 289.29 159.01 334.05 208.56 346.3L218.13 334.39L230.42 319.12C186.96 316.28 152.59 280.13 152.59 235.95C152.59 191.77 189.91 152.59 235.95 152.59C254.85 152.59 272.29 158.88 286.27 169.49L313.23 152.59C292.95 133.76 265.8 122.27 235.95 122.27ZM285.37 303.08C285.22 303.25 285.07 303.42 284.93 303.59C285.39 303.21 285.84 302.81 286.27 302.41C285.97 302.64 285.67 302.86 285.37 303.08ZM235.95 0C105.64 0 0 105.64 0 235.95C0 327.55 52.21 406.98 128.5 446.05L129.55 444.74L139.06 432.93L140.42 431.24C140.93 430.39 141.52 429.56 142.18 428.73L148.52 420.85C79.32 388.08 31.46 317.61 31.46 235.95C31.46 123.01 123.01 31.46 235.95 31.46C298.32 31.46 354.17 59.38 391.68 103.41L418.58 86.55C375.32 33.71 309.57 0 235.95 0ZM235.95 65.43C141.78 65.43 65.43 141.78 65.43 235.95C65.43 306.96 108.83 367.83 170.56 393.48L184.02 376.76L190.56 368.64C135.41 349.78 95.75 297.5 95.75 235.95C95.75 158.52 158.52 95.75 235.95 95.75C275.31 95.75 310.89 111.97 336.35 138.09L362.53 121.69C331.32 87.14 286.17 65.43 235.95 65.43ZM235.95 122.27C173.17 122.27 122.27 173.17 122.27 235.95C122.27 289.29 159.01 334.05 208.56 346.3L218.13 334.39L230.42 319.12C186.96 316.28 152.59 280.13 152.59 235.95C152.59 191.77 189.91 152.59 235.95 152.59C254.85 152.59 272.29 158.88 286.27 169.49L313.23 152.59C292.95 133.76 265.8 122.27 235.95 122.27ZM235.95 0C105.64 0 0 105.64 0 235.95C0 327.55 52.21 406.98 128.5 446.05L129.55 444.74L139.06 432.93L140.42 431.24C140.93 430.39 141.52 429.56 142.18 428.73L148.52 420.85C79.32 388.08 31.46 317.61 31.46 235.95C31.46 123.01 123.01 31.46 235.95 31.46C298.32 31.46 354.17 59.38 391.68 103.41L418.58 86.55C375.32 33.71 309.57 0 235.95 0ZM235.95 65.43C141.78 65.43 65.43 141.78 65.43 235.95C65.43 306.96 108.83 367.83 170.56 393.48L184.02 376.76L190.56 368.64C135.41 349.78 95.75 297.5 95.75 235.95C95.75 158.52 158.52 95.75 235.95 95.75C275.31 95.75 310.89 111.97 336.35 138.09L362.53 121.69C331.32 87.14 286.17 65.43 235.95 65.43ZM285.37 303.08C285.22 303.25 285.07 303.42 284.93 303.59C285.39 303.21 285.84 302.81 286.27 302.41C285.97 302.64 285.67 302.86 285.37 303.08Z" fill="#E0E0E0"/>
</g>
<defs>
<filter id="filter0_d_2007_5" x="-24" y="-8" width="466.58" height="494.05" filterUnits="userSpaceOnUse" color-interpolation-filters="sRGB">
<feFlood flood-opacity="0" result="BackgroundImageFix"/>
<feColorMatrix in="SourceAlpha" type="matrix" values="0 0 0 0 0 0 0 0 0 0 0 0 0 0 0 0 0 0 127 0" result="hardAlpha"/>
<feMorphology radius="8" operator="erode" in="SourceAlpha" result="effect1_dropShadow_2007_5"/>
<feOffset dy="16"/>
<feGaussianBlur stdDeviation="16"/>
<feComposite in2="hardAlpha" operator="out"/>
<feColorMatrix type="matrix" values="0 0 0 0 0.0470588 0 0 0 0 0.0470588 0 0 0 0 0.0509804 0 0 0 0.4 0"/>
<feBlend mode="normal" in2="BackgroundImageFix" result="effect1_dropShadow_2007_5"/>
<feBlend mode="normal" in="SourceGraphic" in2="effect1_dropShadow_2007_5" result="shape"/>
</filter>
</defs>
</svg>
