<svg width="465" height="492" viewBox="0 0 465 492" fill="none" xmlns="http://www.w3.org/2000/svg">
<g clip-path="url(#clip0_2008_2)" filter="url(#filter0_i_2008_2)">
<g filter="url(#filter1_d_2008_2)">
<path d="M235.95 122.27C173.17 122.27 122.27 173.17 122.27 235.95C122.27 289.29 159.01 334.05 208.56 346.3L218.13 334.39L230.42 319.12C186.96 316.28 152.59 280.13 152.59 235.95C152.59 191.77 189.91 152.59 235.95 152.59C254.85 152.59 272.29 158.88 286.27 169.49L313.23 152.59C292.95 133.76 265.8 122.27 235.95 122.27ZM285.37 303.08C285.22 303.25 285.07 303.42 284.93 303.59C285.39 303.21 285.84 302.81 286.27 302.41C285.97 302.64 285.67 302.86 285.37 303.08ZM235.95 65.43C141.78 65.43 65.43 141.78 65.43 235.95C65.43 306.96 108.83 367.83 170.56 393.48L184.02 376.76L190.56 368.64C135.41 349.78 95.75 297.5 95.75 235.95C95.75 158.52 158.52 95.75 235.95 95.75C275.31 95.75 310.89 111.97 336.35 138.09L362.53 121.69C331.32 87.14 286.17 65.43 235.95 65.43ZM235.95 122.27C173.17 122.27 122.27 173.17 122.27 235.95C122.27 289.29 159.01 334.05 208.56 346.3L218.13 334.39L230.42 319.12C186.96 316.28 152.59 280.13 152.59 235.95C152.59 191.77 189.91 152.59 235.95 152.59C254.85 152.59 272.29 158.88 286.27 169.49L313.23 152.59C292.95 133.76 265.8 122.27 235.95 122.27ZM285.37 303.08C285.22 303.25 285.07 303.42 284.93 303.59C285.39 303.21 285.84 302.81 286.27 302.41C285.97 302.64 285.67 302.86 285.37 303.08ZM235.95 0C105.64 0 0 105.64 0 235.95C0 327.55 52.21 406.98 128.5 446.05L129.55 444.74L139.06 432.93L140.42 431.24C140.93 430.39 141.52 429.56 142.18 428.73L148.52 420.85C79.32 388.08 31.46 317.61 31.46 235.95C31.46 123.01 123.01 31.46 235.95 31.46C298.32 31.46 354.17 59.38 391.68 103.41L418.58 86.55C375.32 33.71 309.57 0 235.95 0ZM235.95 65.43C141.78 65.43 65.43 141.78 65.43 235.95C65.43 306.96 108.83 367.83 170.56 393.48L184.02 376.76L190.56 368.64C135.41 349.78 95.75 297.5 95.75 235.95C95.75 158.52 158.52 95.75 235.95 95.75C275.31 95.75 310.89 111.97 336.35 138.09L362.53 121.69C331.32 87.14 286.17 65.43 235.95 65.43ZM235.95 122.27C173.17 122.27 122.27 173.17 122.27 235.95C122.27 289.29 159.01 334.05 208.56 346.3L218.13 334.39L230.42 319.12C186.96 316.28 152.59 280.13 152.59 235.95C152.59 191.77 189.91 152.59 235.95 152.59C254.85 152.59 272.29 158.88 286.27 169.49L313.23 152.59C292.95 133.76 265.8 122.27 235.95 122.27ZM235.95 0C105.64 0 0 105.64 0 235.95C0 327.55 52.21 406.98 128.5 446.05L129.55 444.74L139.06 432.93L140.42 431.24C140.93 430.39 141.52 429.56 142.18 428.73L148.52 420.85C79.32 388.08 31.46 317.61 31.46 235.95C31.46 123.01 123.01 31.46 235.95 31.46C298.32 31.46 354.17 59.38 391.68 103.41L418.58 86.55C375.32 33.71 309.57 0 235.95 0ZM235.95 65.43C141.78 65.43 65.43 141.78 65.43 235.95C65.43 306.96 108.83 367.83 170.56 393.48L184.02 376.76L190.56 368.64C135.41 349.78 95.75 297.5 95.75 235.95C95.75 158.52 158.52 95.75 235.95 95.75C275.31 95.75 310.89 111.97 336.35 138.09L362.53 121.69C331.32 87.14 286.17 65.43 235.95 65.43ZM285.37 303.08C285.22 303.25 285.07 303.42 284.93 303.59C285.39 303.21 285.84 302.81 286.27 302.41C285.97 302.64 285.67 302.86 285.37 303.08Z" fill="#001A11"/>
</g>
<path d="M453.54 471.52C456.7 464.56 455.55 456.71 450.73 450.52L419.95 410.09C413.75 401.93 394.82 377.09 388.34 368.56C386.08 365.58 361.98 333.91 360.5 331.99C337.12 304.1 314.1 249.64 269.49 283.38C269.87 283.14 270.24 282.89 270.62 282.65C270.08 283.09 269.51 283.52 268.93 283.95C237.41 324.54 201.42 372.66 170.31 413.24C164.51 420.86 154.04 434.61 148.27 442.18C141.44 450.33 133.62 460.81 139.13 471.51C139.64 470.56 140.25 469.63 140.93 468.7C326.23 220.48 269.38 227.1 453.54 471.52Z" fill="#887850"/>
<path d="M453.54 471.52C443.76 491.08 192.02 476.82 171.29 480.92C156.04 480.51 145.76 478.24 139.13 471.51C129.54 480.73 145.58 491.42 170.48 491.42H422.18C447.07 491.42 463.12 480.73 453.54 471.52Z" fill="#887850"/>
<g style="mix-blend-mode:lighten">
<path d="M464.64 239.93C464.64 300.03 447.43 353.92 420.2 390.5L410.79 378.82L388.59 351.24L364.46 321.25L360.75 316.66L325.94 273.4C313.67 258.15 284.06 257.25 269.74 270.7C270.12 270.47 270.49 270.24 270.87 270.01C270.33 270.42 269.77 270.83 269.19 271.23H269.18C268.49 271.92 267.84 272.65 267.22 273.4L231.92 317.26L230.42 319.12L220.5 331.45C218.89 326.65 217.41 321.74 216.05 316.72C209.66 293.09 206.13 267.15 206.13 239.93C206.13 129.72 264.01 40.37 335.39 40.37C406.77 40.37 464.64 129.72 464.64 239.93Z" fill="#00BC44"/>
</g>
</g>
<defs>
<filter id="filter0_i_2008_2" x="0" y="0" width="464.64" height="507.42" filterUnits="userSpaceOnUse" color-interpolation-filters="sRGB">
<feFlood flood-opacity="0" result="BackgroundImageFix"/>
<feBlend mode="normal" in="SourceGraphic" in2="BackgroundImageFix" result="shape"/>
<feColorMatrix in="SourceAlpha" type="matrix" values="0 0 0 0 0 0 0 0 0 0 0 0 0 0 0 0 0 0 127 0" result="hardAlpha"/>
<feMorphology radius="4" operator="dilate" in="SourceAlpha" result="effect1_innerShadow_2008_2"/>
<feOffset dy="16"/>
<feGaussianBlur stdDeviation="16"/>
<feComposite in2="hardAlpha" operator="arithmetic" k2="-1" k3="1"/>
<feColorMatrix type="matrix" values="0 0 0 0 0.0470588 0 0 0 0 0.0470588 0 0 0 0 0.0509804 0 0 0 0.1 0"/>
<feBlend mode="normal" in2="shape" result="effect1_innerShadow_2008_2"/>
</filter>
<filter id="filter1_d_2008_2" x="-24" y="-8" width="466.58" height="494.05" filterUnits="userSpaceOnUse" color-interpolation-filters="sRGB">
<feFlood flood-opacity="0" result="BackgroundImageFix"/>
<feColorMatrix in="SourceAlpha" type="matrix" values="0 0 0 0 0 0 0 0 0 0 0 0 0 0 0 0 0 0 127 0" result="hardAlpha"/>
<feMorphology radius="8" operator="erode" in="SourceAlpha" result="effect1_dropShadow_2008_2"/>
<feOffset dy="16"/>
<feGaussianBlur stdDeviation="16"/>
<feComposite in2="hardAlpha" operator="out"/>
<feColorMatrix type="matrix" values="0 0 0 0 0.0470588 0 0 0 0 0.0470588 0 0 0 0 0.0509804 0 0 0 0.4 0"/>
<feBlend mode="normal" in2="BackgroundImageFix" result="effect1_dropShadow_2008_2"/>
<feBlend mode="normal" in="SourceGraphic" in2="effect1_dropShadow_2008_2" result="shape"/>
</filter>
<clipPath id="clip0_2008_2">
<rect width="464.64" height="491.42" fill="white"/>
</clipPath>
</defs>
</svg>
