<svg width="259" height="351" viewBox="0 0 259 351" fill="none" xmlns="http://www.w3.org/2000/svg">
<g style="mix-blend-mode:lighten">
<path d="M258.51 199.56C258.51 259.66 241.3 313.55 214.07 350.13L204.66 338.45L182.46 310.87L158.33 280.88L154.62 276.29L119.81 233.03C107.54 217.78 77.93 216.88 63.61 230.33C63.99 230.1 64.36 229.87 64.74 229.64C64.2 230.05 63.64 230.46 63.06 230.86H63.05C62.36 231.55 61.71 232.28 61.09 233.03L25.79 276.89L24.29 278.75L14.37 291.08C12.76 286.28 11.28 281.37 9.92 276.35C3.53 252.72 0 226.78 0 199.56C0 89.35 57.88 0 129.26 0C200.64 0 258.51 89.35 258.51 199.56Z" fill="#00BC44"/>
</g>
</svg>
