<?xml version="1.0" encoding="UTF-8"?>
<svg id="Layer_2" data-name="Layer 2" xmlns="http://www.w3.org/2000/svg" viewBox="0 0 258.51 350.13">
  <defs>
    <style>
      .cls-1 {
        fill: #fac575;
      }
    </style>
  </defs>
  <g id="Layer_1-2" data-name="Layer 1">
    <path class="cls-1" d="M258.51,199.56c0,60.1-17.21,113.99-44.44,150.57l-9.41-11.68-22.2-27.58-24.13-29.99-3.71-4.59-34.81-43.26c-12.27-15.25-41.88-16.15-56.2-2.7.38-.23.75-.46,1.13-.69-.54.41-1.1.82-1.68,1.22h-.01c-.69.69-1.34,1.42-1.96,2.17l-35.3,43.86-1.5,1.86-9.92,12.33c-1.61-4.8-3.09-9.71-4.45-14.73C3.53,252.72,0,226.78,0,199.56,0,89.35,57.88,0,129.26,0s129.25,89.35,129.25,199.56Z"/>
  </g>
</svg>