<svg width="321" height="219" viewBox="0 0 321 219" fill="none" xmlns="http://www.w3.org/2000/svg">
<path d="M317.223 198.827C320.383 191.867 319.233 184.017 314.413 177.827L283.633 137.397C277.433 129.237 258.503 104.397 252.023 95.8667C249.763 92.8867 225.663 61.2166 224.183 59.2966C200.803 31.4067 177.783 -23.0533 133.173 10.6867C133.553 10.4467 133.923 10.1967 134.303 9.95665C133.763 10.3967 133.193 10.8267 132.613 11.2567C101.093 51.8467 65.1026 99.9666 33.9926 140.547C28.1926 148.167 17.7226 161.917 11.9526 169.487C5.12256 177.637 -2.69744 188.117 2.81256 198.817C3.32256 197.867 3.93255 196.937 4.61255 196.007C189.913 -52.2133 133.063 -45.5934 317.223 198.827Z" fill="#887850"/>
<path d="M317.223 198.827C307.443 218.387 55.7026 204.127 34.9726 208.227C19.7226 207.817 9.44256 205.547 2.81256 198.817C-6.77744 208.037 9.26256 218.727 34.1626 218.727H285.863C310.753 218.727 326.803 208.037 317.223 198.827Z" fill="#887850"/>
</svg>
